<svg width="60" height="58" viewBox="0 0 60 58" fill="none" xmlns="http://www.w3.org/2000/svg">
<g clip-path="url(#clip0_4_47158)">
<path d="M50.5744 60.6732C49.385 61.093 48.5602 61.8182 47.991 62.8678C46.8528 64.9924 45.4972 66.9708 43.6364 68.5356C43.0353 69.0382 42.2935 69.3753 41.5965 69.7506C41.4174 69.846 41.1553 69.846 40.9442 69.8142C40.6437 69.7697 40.4519 69.6043 40.5862 69.2417C40.778 68.7392 40.9762 68.2366 41.1233 67.7214C41.3023 67.098 41.4366 66.4682 41.5645 65.8321C41.5965 65.6731 41.5453 65.5013 41.5262 65.2723C41.021 66.042 40.5606 66.7418 40.1002 67.4351C38.0028 70.6285 34.9462 72.4987 31.3652 73.6246C31.0455 73.7264 30.7322 73.86 30.406 73.9299C30.1503 73.9872 29.8497 74.0381 29.6067 73.9617C27.3495 73.2366 25.1689 72.3333 23.3081 70.8384C21.524 69.4008 20.1044 67.6578 19.1389 65.5713C19.1069 65.5013 19.0557 65.4377 18.9278 65.2342C18.8575 65.5777 18.7488 65.8003 18.7808 66.0039C18.8959 66.7354 19.0493 67.4669 19.2092 68.1921C19.2923 68.5611 19.4266 68.9237 19.497 69.2926C19.5865 69.7379 19.3691 69.986 18.915 69.9097C18.6273 69.8588 18.3395 69.7252 18.0838 69.5725C15.462 67.944 13.5308 65.7621 12.6356 62.7597C12.6036 62.6579 12.5461 62.5688 12.5013 62.4734L12.3542 62.4861C12.3542 62.9823 12.3542 63.4785 12.3542 63.981C12.3415 64.9288 12.0089 65.1069 11.1521 64.6298C10.9986 64.5408 10.8579 64.439 10.7045 64.35C10.4487 64.1909 10.244 64.0891 9.89235 64.2927C9.63657 64.439 9.11861 64.4008 8.86922 64.2291C8.17861 63.7584 7.50079 63.2304 6.93807 62.6197C5.75508 61.3347 4.36107 60.3042 2.96066 59.2801C2.02067 58.5867 1.55386 57.6134 1.31087 56.5193C0.569105 53.2051 0.78652 50.0245 2.60896 47.0538C2.74325 46.8312 2.84556 46.5831 2.94788 46.3732C2.35958 46.5449 1.80325 46.7294 1.22774 46.863C1.02312 46.9139 0.780125 46.8821 0.569105 46.8375C-0.0255873 46.7103 -0.204634 46.1823 0.185433 45.7307C0.36448 45.5271 0.562711 45.3426 0.773731 45.1709C2.43631 43.7714 3.65127 42.0412 4.62964 40.1265C5.06447 39.2804 5.53127 38.4535 5.9661 37.6011C6.07481 37.3911 6.10678 37.143 6.17712 36.914C6.13875 36.8886 6.10038 36.8568 6.05562 36.8313C5.91494 36.9077 5.76787 36.9904 5.62719 37.0731C4.84066 37.5247 4.05413 38.0018 3.12053 38.0845C2.6857 38.1227 2.22529 38.1227 1.79686 38.0336C1.03591 37.8682 0.837676 37.0858 1.37482 36.5196C1.49631 36.3924 1.6242 36.2652 1.77128 36.1761C3.51699 35.1456 4.61685 33.568 5.4993 31.8123C5.92134 30.9663 6.27304 30.0821 6.6695 29.1915C6.47127 29.1025 6.36256 29.0325 6.24106 29.0007C4.34189 28.4982 3.53617 27.0096 3.05658 25.3303C2.51305 23.4346 2.87754 21.6153 4.10529 20.0695C5.23073 18.6574 6.7846 18.0594 8.59426 18.2121C9.00351 18.2502 9.15058 18.1548 9.2465 17.7795C9.75167 15.8711 10.4039 14.0264 11.3823 12.2961C12.8338 9.71985 14.8225 7.65882 17.2908 6.03671C19.2284 4.76447 21.2874 3.78484 23.6022 3.42861C25.0474 3.20597 26.4862 3.14872 27.925 3.51131C28.0465 3.54311 28.168 3.54948 28.2895 3.56856C28.315 3.53039 28.347 3.49222 28.3726 3.45406C28.0848 3.19961 27.8035 2.94516 27.5157 2.69071C26.8763 2.12456 26.224 1.5775 25.6101 0.979546C25.4567 0.833238 25.3416 0.438843 25.4311 0.311618C25.5526 0.139866 25.8787 0.0380862 26.1281 0.0253638C27.132 -0.0318871 28.0337 0.381592 28.9289 0.750542C30.6043 1.44391 32.2988 2.11184 33.7696 3.21869C33.9166 3.33319 34.166 3.40953 34.3387 3.37136C35.6304 3.05966 36.8517 3.33956 38.0411 3.78484C44.2247 6.0876 48.3555 10.3433 50.3314 16.6345C50.4146 16.8889 50.4657 17.1561 50.5297 17.4169C50.5936 17.6586 50.6512 17.9067 50.6959 18.1039C51.5016 18.1994 52.2946 18.1994 53.0363 18.4093C55.511 19.1026 57.1224 21.2082 56.9754 24.1089C56.9114 25.4384 56.3679 26.558 55.6709 27.5694C55.1465 28.3264 54.4623 29.1152 53.3561 29.2361C53.663 30.8009 54.3216 32.1686 55.2424 33.4217C56.029 34.4904 56.8986 35.47 58.0624 36.1698C58.6188 36.5006 58.7722 36.9649 58.5996 37.4675C58.4589 37.8746 58.0752 38.0781 57.4741 38.0972C56.3103 38.129 55.3703 37.5311 54.3856 37.0476C54.2065 36.9586 54.0211 36.8886 53.7142 36.755C53.9252 37.2703 54.0467 37.6774 54.2513 38.04C55.1146 39.573 55.9203 41.1506 56.905 42.6073C57.5637 43.587 58.4781 44.3948 59.2774 45.279C59.4692 45.489 59.6994 45.6734 59.8529 45.9088C60.1918 46.4368 59.8529 47.092 59.2326 47.0347C58.5101 46.9711 57.8003 46.7866 57.0713 46.6467C57.1544 46.8121 57.2439 47.0538 57.3846 47.2701C58.9769 49.7192 59.1943 52.3909 58.7083 55.1898C58.4781 56.4939 57.8322 57.5053 56.9818 58.504C55.5942 60.1325 54.0595 61.6083 52.48 63.0395C51.9429 63.523 51.3354 63.9492 50.7087 64.3245C50.1716 64.6489 49.692 64.5662 49.3914 64.2355C49.0717 63.8729 49.0909 63.3385 49.4298 62.8423C49.8774 62.1935 50.3762 61.5701 50.5616 60.6986L50.5744 60.6732ZM45.3245 26.9269C45.0495 27.175 44.8833 27.3722 44.6787 27.5122C44.2566 27.8048 43.841 28.1483 43.3678 28.3264C42.8242 28.5363 42.2743 28.2819 42.0313 27.862C41.75 27.3722 41.8395 26.9269 42.2999 26.4562C42.933 25.8137 43.4957 25.1204 43.6939 24.2234C44.3717 21.1382 43.1632 17.5569 39.7037 15.9856C38.7189 15.5404 37.6894 15.1905 36.6727 14.8152C36.5768 14.777 36.3849 14.8788 36.2954 14.9679C35.9757 15.2986 35.7135 15.6867 35.3746 15.9984C34.0509 17.207 32.4331 17.9449 30.8665 18.7591C30.1822 19.1154 29.498 19.0772 28.8074 18.6892C27.8226 18.1357 26.8315 17.576 25.8084 17.0989C24.9067 16.679 24.1586 16.132 23.6982 15.2477C23.5511 14.9615 23.3401 14.9233 23.0651 15.006C22.528 15.1587 21.9844 15.2923 21.4537 15.464C19.2156 16.1828 17.4059 17.436 16.5874 19.7197C16.0375 21.2527 15.6666 22.8685 16.3317 24.4588C16.6514 25.2221 17.1821 25.8964 17.6553 26.5898C17.9047 26.9587 17.9942 27.3086 17.7768 27.6966C17.5594 28.0847 17.2461 28.3518 16.7665 28.231C16.4148 28.1419 16.0567 28.0401 15.7498 27.862C15.3405 27.6267 14.9824 27.315 14.5923 27.0351C14.701 28.7908 14.733 30.5528 15.9224 32.0732C17.9303 31.0935 19.8934 29.9867 22.2466 30.4829C22.1571 30.8327 22.1251 31.1381 21.9972 31.3989C21.8821 31.6342 21.6967 31.9332 21.4793 32.0032C20.4114 32.3594 19.4906 32.951 18.6465 33.6507C17.8344 34.325 17.1757 35.1647 16.8112 36.1507C16.3189 37.4738 16.338 38.8733 16.6322 40.2346C17.0862 42.3783 18.4994 43.7587 20.5009 44.4902C22.4896 45.2154 24.5295 45.8007 26.5501 46.4177C26.8379 46.5067 27.1704 46.4559 27.5093 46.4749C27.4518 45.9915 27.4006 45.578 27.3431 45.1264C27.7523 45.1264 28.0529 45.1136 28.3534 45.1264C29.4852 45.1773 30.6171 45.26 31.7489 45.2854C32.1709 45.2918 32.3947 45.4508 32.4267 45.8388C32.4715 46.3859 32.772 46.4877 33.2388 46.3795C33.3795 46.3477 33.5266 46.3604 33.6609 46.3159C35.624 45.6607 37.5999 45.0437 39.5438 44.3376C42.8882 43.1226 43.8793 39.8084 43.3934 37.3466C42.8946 34.8276 41.3535 33.0591 38.9044 32.1368C38.137 31.8442 38.137 31.8505 38.1243 31.0363C38.1179 30.3429 38.2074 30.2411 38.9172 30.2475C40.26 30.2475 41.5325 30.5465 42.7411 31.1444C43.9689 31.7551 44.4037 31.7487 45.1774 30.1966C45.2542 30.0439 45.3053 29.8595 45.3053 29.6941C45.3181 28.8099 45.3053 27.932 45.3053 26.9269H45.3245ZM51.0348 22.156C51.3162 22.1369 51.572 22.1115 51.8214 22.1051C52.5951 22.0797 53.2601 22.5377 53.5095 23.2629C53.695 23.7972 53.5863 24.3634 53.241 24.5733C52.8765 24.1216 52.3841 23.9817 51.751 24.0199C51.8278 25.2794 52.301 26.3735 52.723 27.5249C54.1298 27.1623 54.6797 26.0936 55.057 24.9295C55.5622 23.3328 55.1849 21.9397 53.938 20.7693C52.9596 19.8469 51.8214 19.8278 50.6064 20.0123C50.7535 20.7375 50.8878 21.4181 51.0348 22.1624V22.156ZM6.29222 24.5033C5.98528 24.0071 6.01086 23.2756 6.45208 22.7222C6.95725 22.0861 7.61589 21.8316 8.43439 21.927C8.58786 21.9461 8.87562 21.8507 8.91398 21.7425C9.10582 21.2146 9.24011 20.6611 9.42555 19.9996C8.79249 19.9805 8.22337 19.9232 7.66065 19.9614C6.21549 20.0441 4.61685 21.3482 4.54651 22.7349C4.50175 23.6191 4.62325 24.5542 4.89821 25.3875C5.21794 26.3608 5.94052 27.1051 6.98923 27.4931C7.6031 26.5262 7.9548 25.5147 8.08269 24.2934C7.488 24.3634 6.95086 24.4333 6.30501 24.5097L6.29222 24.5033Z" fill="#013366"/>
<path d="M30.2526 26.4372C32.0878 26.3736 33.9231 26.7489 35.5409 27.9384C36.5001 28.6445 37.0692 29.6114 37.2802 30.7501C37.568 32.2959 36.11 34.1088 34.5242 34.2106C34.3387 34.2233 34.0254 34.0579 33.9678 33.9053C33.8911 33.7017 33.9295 33.3582 34.0638 33.1928C34.441 32.7284 34.9142 32.3404 35.3043 31.8888C35.6816 31.4562 35.6944 30.9091 35.3938 30.4702C35.0357 29.9422 34.6265 29.3888 34.1085 29.0389C32.4715 27.9321 27.8802 27.6776 26.1537 28.988C25.6357 29.3824 25.1242 29.8723 24.7981 30.4193C24.3249 31.2145 24.6254 31.8251 25.4887 32.5249C25.7572 32.7475 26.0514 32.9384 26.32 33.161C26.5438 33.3518 26.5246 33.5554 26.3264 33.778C25.9171 34.2297 25.3928 34.2424 24.8684 34.1025C24.2865 33.9434 23.8325 33.5808 23.4872 33.0656C22.2338 31.2081 23.3465 28.759 24.9643 27.7412C26.1793 26.9843 27.9506 26.3481 30.2462 26.4308L30.2526 26.4372Z" fill="#013366"/>
<path d="M29.8689 41.0106C27.3047 40.9661 24.3376 40.6608 21.4984 39.573C21.1467 39.4394 20.8014 39.2486 20.5009 39.0196C20.0213 38.6634 19.9318 38.3135 20.1428 37.9191C20.3538 37.5311 20.8014 37.372 21.313 37.512C21.3897 37.5311 21.4665 37.5629 21.5304 37.6074C23.0587 38.6888 24.862 38.8478 26.6333 38.9814C28.4749 39.1214 30.3357 39.1723 32.1837 39.0768C33.8463 38.9941 35.5025 38.6888 37.1523 38.4153C37.5551 38.3453 37.9068 37.9954 38.2969 37.8046C38.5655 37.671 38.8852 37.4675 39.1474 37.512C39.4479 37.5565 39.838 37.7855 39.9467 38.04C40.0426 38.2626 39.9019 38.7333 39.7037 38.9114C39.2945 39.2677 38.8021 39.5794 38.2905 39.7766C36.6407 40.4063 34.9014 40.6544 33.1493 40.8198C32.2093 40.9089 31.2693 40.9343 29.8753 41.0106H29.8689Z" fill="#013366"/>
<path d="M36.225 26.1573C35.0868 26.1636 34.0637 25.0949 34.0573 23.8863C34.0509 22.6777 35.0548 21.679 36.2826 21.6726C37.5167 21.6726 38.4759 22.6332 38.4823 23.8863C38.4823 25.1713 37.5231 26.1445 36.225 26.1509V26.1573ZM36.3529 23.1866C36.3657 22.7349 36.0524 22.3533 35.7518 22.3405C35.4705 22.3278 35.0932 22.6713 35.0676 22.9639C35.0484 23.2438 35.4129 23.6573 35.6943 23.6255C36.014 23.5873 36.3273 23.4919 36.3529 23.1929V23.1866Z" fill="#013366"/>
<path d="M23.7494 21.7426C24.9963 21.7617 25.8915 22.6586 25.8851 23.8927C25.8851 25.1586 24.8236 26.1954 23.5511 26.1763C22.4513 26.1636 21.4857 25.044 21.5241 23.8354C21.5624 22.5505 22.4385 21.7299 23.7494 21.7426ZM22.5216 23.0912C22.5664 23.3392 22.6751 23.6955 23.0332 23.6191C23.2826 23.5682 23.5767 23.282 23.6598 23.0403C23.7621 22.7286 23.3593 22.2706 23.1099 22.2769C22.7902 22.2896 22.5088 22.6459 22.5216 23.0912Z" fill="#013366"/>
<path d="M29.0887 32.633C29.4532 32.6585 29.7985 32.6967 30.1438 32.7094C30.7001 32.7221 31.1094 32.6012 31.314 31.946C31.5762 31.0809 32.8039 30.5657 33.68 30.8137C34.1148 30.941 34.4346 31.1954 34.441 31.6725C34.441 32.1242 34.1084 32.3213 33.7312 32.4486C33.3539 32.5694 32.9766 32.6903 32.5929 32.8048C32.1965 32.9257 31.8384 33.0593 31.5762 33.4346C31.2884 33.8417 30.4763 33.988 30.0031 33.8417C29.498 33.6827 29.0887 33.4282 28.6667 33.0847C28.2894 32.773 27.6691 32.7094 27.1448 32.6394C26.3902 32.5376 25.9234 32.2132 25.949 31.6789C25.9746 31.1827 26.614 30.712 27.2471 30.7183C28.2191 30.731 28.948 31.4562 29.0887 32.6394V32.633Z" fill="#013366"/>
<path d="M40.4839 19.3189C40.4775 19.8915 39.9723 20.235 39.5375 19.9678C38.3417 19.2235 37.0564 18.9436 35.6624 19.0772C35.3171 19.109 35.0741 18.9627 35.0102 18.6001C34.9462 18.2057 35.1125 17.9576 35.5025 17.8622C37.0053 17.506 38.4376 17.6841 39.7933 18.4157C40.1642 18.6192 40.4455 18.9182 40.4839 19.3189Z" fill="#013366"/>
<path d="M23.2122 17.627C23.436 17.6651 23.8516 17.7096 24.2417 17.8178C24.5998 17.9196 24.798 18.1931 24.7277 18.5811C24.6573 18.9755 24.3824 19.0455 24.0179 19.0201C22.7965 18.9374 21.6967 19.3127 20.6607 19.9106C20.341 20.0951 20.0724 20.1015 19.7975 19.8407C19.4778 19.5353 19.4394 19.2491 19.7527 18.9437C20.6544 18.0468 21.7734 17.6715 23.2122 17.6333V17.627Z" fill="#013366"/>
</g>
<defs>
<clipPath id="clip0_4_47158">
<rect width="60" height="74" fill="white"/>
</clipPath>
</defs>
</svg>
